<mxfile host="app.diagrams.net" agent="Mozilla/5.0 (Windows NT 10.0; Win64; x64) AppleWebKit/537.36 (KHTML, like Gecko) Chrome/122.0.0.0 Safari/537.36" version="27.0.6">
  <diagram name="Página-1" id="Hrszt5Fr_KAt9_tzd4eq">
    <mxGraphModel dx="770" dy="742" grid="1" gridSize="10" guides="1" tooltips="1" connect="1" arrows="1" fold="1" page="1" pageScale="1" pageWidth="827" pageHeight="1169" math="0" shadow="0">
      <root>
        <mxCell id="0" />
        <mxCell id="1" parent="0" />
        <mxCell id="SlWbrO8GuP0TGCZLVEYo-6" value="" style="ellipse;whiteSpace=wrap;html=1;fillColor=#000000;" vertex="1" parent="1">
          <mxGeometry x="290" y="370" width="10" height="10" as="geometry" />
        </mxCell>
        <mxCell id="SlWbrO8GuP0TGCZLVEYo-8" value="" style="ellipse;whiteSpace=wrap;html=1;fillColor=#000000;" vertex="1" parent="1">
          <mxGeometry x="290" y="410" width="10" height="10" as="geometry" />
        </mxCell>
        <mxCell id="SlWbrO8GuP0TGCZLVEYo-9" value="" style="ellipse;whiteSpace=wrap;html=1;fillColor=#000000;" vertex="1" parent="1">
          <mxGeometry x="290" y="390" width="10" height="10" as="geometry" />
        </mxCell>
        <mxCell id="SlWbrO8GuP0TGCZLVEYo-11" value="&lt;font style=&quot;font-size: 30px;&quot;&gt;X&lt;sub&gt;1&lt;/sub&gt;&lt;/font&gt;" style="rounded=0;whiteSpace=wrap;html=1;" vertex="1" parent="1">
          <mxGeometry x="265" y="160" width="70" height="70" as="geometry" />
        </mxCell>
        <mxCell id="SlWbrO8GuP0TGCZLVEYo-13" value="&lt;font style=&quot;font-size: 30px;&quot;&gt;X&lt;sub&gt;2&lt;/sub&gt;&lt;/font&gt;" style="rounded=0;whiteSpace=wrap;html=1;" vertex="1" parent="1">
          <mxGeometry x="265" y="260" width="70" height="70" as="geometry" />
        </mxCell>
        <mxCell id="SlWbrO8GuP0TGCZLVEYo-14" value="&lt;font style=&quot;font-size: 30px;&quot;&gt;X&lt;/font&gt;&lt;font style=&quot;font-size: 25px;&quot;&gt;n&lt;/font&gt;" style="rounded=0;whiteSpace=wrap;html=1;" vertex="1" parent="1">
          <mxGeometry x="260" y="450" width="70" height="70" as="geometry" />
        </mxCell>
        <mxCell id="SlWbrO8GuP0TGCZLVEYo-15" value="&lt;font style=&quot;font-size: 30px;&quot;&gt;NO&lt;sub&gt;1&lt;/sub&gt;&lt;/font&gt;" style="ellipse;whiteSpace=wrap;html=1;" vertex="1" parent="1">
          <mxGeometry x="450" y="150" width="70" height="70" as="geometry" />
        </mxCell>
        <mxCell id="SlWbrO8GuP0TGCZLVEYo-16" value="&lt;font style=&quot;font-size: 30px;&quot;&gt;NO&lt;/font&gt;&lt;font style=&quot;font-size: 25px;&quot;&gt;&lt;sub&gt;2&lt;/sub&gt;&lt;/font&gt;" style="ellipse;whiteSpace=wrap;html=1;" vertex="1" parent="1">
          <mxGeometry x="450" y="250" width="70" height="70" as="geometry" />
        </mxCell>
        <mxCell id="SlWbrO8GuP0TGCZLVEYo-17" value="&lt;font style=&quot;font-size: 30px;&quot;&gt;NO&lt;/font&gt;&lt;font style=&quot;font-size: 25px;&quot;&gt;n&lt;/font&gt;" style="ellipse;whiteSpace=wrap;html=1;" vertex="1" parent="1">
          <mxGeometry x="450" y="450" width="70" height="70" as="geometry" />
        </mxCell>
        <mxCell id="SlWbrO8GuP0TGCZLVEYo-19" value="Camada com Neurônios Ocultos" style="text;html=1;align=center;verticalAlign=middle;whiteSpace=wrap;rounded=0;strokeColor=none;fontSize=20;" vertex="1" parent="1">
          <mxGeometry x="420" y="80" width="130" height="30" as="geometry" />
        </mxCell>
        <mxCell id="SlWbrO8GuP0TGCZLVEYo-23" value="" style="endArrow=classic;html=1;rounded=0;entryX=0.086;entryY=0.3;entryDx=0;entryDy=0;entryPerimeter=0;fillColor=#f8cecc;strokeColor=#FF3333;" edge="1" parent="1" target="SlWbrO8GuP0TGCZLVEYo-15">
          <mxGeometry width="50" height="50" relative="1" as="geometry">
            <mxPoint x="335" y="200" as="sourcePoint" />
            <mxPoint x="385" y="150" as="targetPoint" />
          </mxGeometry>
        </mxCell>
        <mxCell id="SlWbrO8GuP0TGCZLVEYo-25" value="" style="endArrow=classic;html=1;rounded=0;fillColor=#f8cecc;strokeColor=#FF3333;" edge="1" parent="1">
          <mxGeometry width="50" height="50" relative="1" as="geometry">
            <mxPoint x="330" y="480" as="sourcePoint" />
            <mxPoint x="450" y="190" as="targetPoint" />
          </mxGeometry>
        </mxCell>
        <mxCell id="SlWbrO8GuP0TGCZLVEYo-26" value="" style="endArrow=classic;html=1;rounded=0;entryX=0;entryY=0.286;entryDx=0;entryDy=0;entryPerimeter=0;strokeColor=#006633;" edge="1" parent="1" target="SlWbrO8GuP0TGCZLVEYo-16">
          <mxGeometry width="50" height="50" relative="1" as="geometry">
            <mxPoint x="335" y="200" as="sourcePoint" />
            <mxPoint x="385" y="150" as="targetPoint" />
          </mxGeometry>
        </mxCell>
        <mxCell id="SlWbrO8GuP0TGCZLVEYo-27" value="" style="endArrow=classic;html=1;rounded=0;entryX=0;entryY=0.5;entryDx=0;entryDy=0;strokeColor=#006633;" edge="1" parent="1" target="SlWbrO8GuP0TGCZLVEYo-16">
          <mxGeometry width="50" height="50" relative="1" as="geometry">
            <mxPoint x="335" y="300" as="sourcePoint" />
            <mxPoint x="385" y="250" as="targetPoint" />
          </mxGeometry>
        </mxCell>
        <mxCell id="SlWbrO8GuP0TGCZLVEYo-28" value="" style="endArrow=classic;html=1;rounded=0;entryX=0.014;entryY=0.7;entryDx=0;entryDy=0;entryPerimeter=0;strokeColor=#006633;" edge="1" parent="1" target="SlWbrO8GuP0TGCZLVEYo-16">
          <mxGeometry width="50" height="50" relative="1" as="geometry">
            <mxPoint x="330" y="480" as="sourcePoint" />
            <mxPoint x="380" y="430" as="targetPoint" />
          </mxGeometry>
        </mxCell>
        <mxCell id="SlWbrO8GuP0TGCZLVEYo-29" value="" style="endArrow=classic;html=1;rounded=0;entryX=0;entryY=0;entryDx=0;entryDy=0;fillColor=#0050ef;strokeColor=#001DBC;" edge="1" parent="1" target="SlWbrO8GuP0TGCZLVEYo-17">
          <mxGeometry width="50" height="50" relative="1" as="geometry">
            <mxPoint x="335" y="200" as="sourcePoint" />
            <mxPoint x="385" y="150" as="targetPoint" />
          </mxGeometry>
        </mxCell>
        <mxCell id="SlWbrO8GuP0TGCZLVEYo-30" value="" style="endArrow=classic;html=1;rounded=0;entryX=0;entryY=0.5;entryDx=0;entryDy=0;fillColor=#0050ef;strokeColor=#001DBC;" edge="1" parent="1" target="SlWbrO8GuP0TGCZLVEYo-17">
          <mxGeometry width="50" height="50" relative="1" as="geometry">
            <mxPoint x="335" y="300" as="sourcePoint" />
            <mxPoint x="385" y="250" as="targetPoint" />
          </mxGeometry>
        </mxCell>
        <mxCell id="SlWbrO8GuP0TGCZLVEYo-31" value="" style="endArrow=classic;html=1;rounded=0;entryX=-0.029;entryY=0.643;entryDx=0;entryDy=0;entryPerimeter=0;fillColor=#0050ef;strokeColor=#001DBC;" edge="1" parent="1" target="SlWbrO8GuP0TGCZLVEYo-17">
          <mxGeometry width="50" height="50" relative="1" as="geometry">
            <mxPoint x="330" y="480" as="sourcePoint" />
            <mxPoint x="380" y="430" as="targetPoint" />
          </mxGeometry>
        </mxCell>
        <mxCell id="SlWbrO8GuP0TGCZLVEYo-37" value="" style="ellipse;whiteSpace=wrap;html=1;fillColor=#000000;" vertex="1" parent="1">
          <mxGeometry x="480" y="367" width="10" height="10" as="geometry" />
        </mxCell>
        <mxCell id="SlWbrO8GuP0TGCZLVEYo-38" value="" style="ellipse;whiteSpace=wrap;html=1;fillColor=#000000;" vertex="1" parent="1">
          <mxGeometry x="480" y="407" width="10" height="10" as="geometry" />
        </mxCell>
        <mxCell id="SlWbrO8GuP0TGCZLVEYo-39" value="" style="ellipse;whiteSpace=wrap;html=1;fillColor=#000000;" vertex="1" parent="1">
          <mxGeometry x="480" y="387" width="10" height="10" as="geometry" />
        </mxCell>
        <mxCell id="SlWbrO8GuP0TGCZLVEYo-42" value="" style="endArrow=classic;html=1;rounded=0;entryX=0;entryY=0.5;entryDx=0;entryDy=0;fillColor=#f8cecc;strokeColor=#FF3333;" edge="1" parent="1" target="SlWbrO8GuP0TGCZLVEYo-15">
          <mxGeometry width="50" height="50" relative="1" as="geometry">
            <mxPoint x="335" y="300" as="sourcePoint" />
            <mxPoint x="385" y="250" as="targetPoint" />
          </mxGeometry>
        </mxCell>
        <mxCell id="SlWbrO8GuP0TGCZLVEYo-43" value="&lt;font style=&quot;font-size: 30px;&quot;&gt;NS&lt;sub&gt;1&lt;/sub&gt;&lt;/font&gt;" style="ellipse;whiteSpace=wrap;html=1;" vertex="1" parent="1">
          <mxGeometry x="590" y="220" width="70" height="70" as="geometry" />
        </mxCell>
        <mxCell id="SlWbrO8GuP0TGCZLVEYo-45" value="&lt;font style=&quot;font-size: 30px;&quot;&gt;NS&lt;/font&gt;&lt;font style=&quot;font-size: 25px;&quot;&gt;n&lt;/font&gt;" style="ellipse;whiteSpace=wrap;html=1;" vertex="1" parent="1">
          <mxGeometry x="590" y="377" width="70" height="70" as="geometry" />
        </mxCell>
        <mxCell id="SlWbrO8GuP0TGCZLVEYo-46" value="Camada com Neurônios Saída" style="text;html=1;align=center;verticalAlign=middle;whiteSpace=wrap;rounded=0;strokeColor=none;fontSize=20;" vertex="1" parent="1">
          <mxGeometry x="560" y="150" width="130" height="30" as="geometry" />
        </mxCell>
        <mxCell id="SlWbrO8GuP0TGCZLVEYo-47" value="" style="endArrow=classic;html=1;rounded=0;entryX=0;entryY=0.286;entryDx=0;entryDy=0;entryPerimeter=0;fillColor=#6a00ff;strokeColor=#3700CC;" edge="1" parent="1" target="SlWbrO8GuP0TGCZLVEYo-43">
          <mxGeometry width="50" height="50" relative="1" as="geometry">
            <mxPoint x="520" y="190" as="sourcePoint" />
            <mxPoint x="570" y="140" as="targetPoint" />
          </mxGeometry>
        </mxCell>
        <mxCell id="SlWbrO8GuP0TGCZLVEYo-48" value="" style="endArrow=classic;html=1;rounded=0;entryX=0;entryY=0.5;entryDx=0;entryDy=0;fillColor=#6a00ff;strokeColor=#3700CC;" edge="1" parent="1" target="SlWbrO8GuP0TGCZLVEYo-43">
          <mxGeometry width="50" height="50" relative="1" as="geometry">
            <mxPoint x="520" y="280" as="sourcePoint" />
            <mxPoint x="570" y="230" as="targetPoint" />
          </mxGeometry>
        </mxCell>
        <mxCell id="SlWbrO8GuP0TGCZLVEYo-49" value="" style="endArrow=classic;html=1;rounded=0;entryX=0;entryY=0.714;entryDx=0;entryDy=0;entryPerimeter=0;fillColor=#6a00ff;strokeColor=#3700CC;" edge="1" parent="1" target="SlWbrO8GuP0TGCZLVEYo-43">
          <mxGeometry width="50" height="50" relative="1" as="geometry">
            <mxPoint x="510" y="460" as="sourcePoint" />
            <mxPoint x="560" y="417" as="targetPoint" />
          </mxGeometry>
        </mxCell>
        <mxCell id="SlWbrO8GuP0TGCZLVEYo-50" value="" style="endArrow=classic;html=1;rounded=0;entryX=0;entryY=0;entryDx=0;entryDy=0;fillColor=#fa6800;strokeColor=#C73500;" edge="1" parent="1" target="SlWbrO8GuP0TGCZLVEYo-45">
          <mxGeometry width="50" height="50" relative="1" as="geometry">
            <mxPoint x="520" y="200" as="sourcePoint" />
            <mxPoint x="570" y="150" as="targetPoint" />
          </mxGeometry>
        </mxCell>
        <mxCell id="SlWbrO8GuP0TGCZLVEYo-51" value="" style="endArrow=classic;html=1;rounded=0;entryX=0;entryY=0.5;entryDx=0;entryDy=0;fillColor=#fa6800;strokeColor=#C73500;" edge="1" parent="1" target="SlWbrO8GuP0TGCZLVEYo-45">
          <mxGeometry width="50" height="50" relative="1" as="geometry">
            <mxPoint x="520" y="290" as="sourcePoint" />
            <mxPoint x="570" y="240" as="targetPoint" />
          </mxGeometry>
        </mxCell>
        <mxCell id="SlWbrO8GuP0TGCZLVEYo-52" value="" style="endArrow=classic;html=1;rounded=0;entryX=0;entryY=0.614;entryDx=0;entryDy=0;entryPerimeter=0;fillColor=#fa6800;strokeColor=#C73500;" edge="1" parent="1" target="SlWbrO8GuP0TGCZLVEYo-45">
          <mxGeometry width="50" height="50" relative="1" as="geometry">
            <mxPoint x="520" y="490" as="sourcePoint" />
            <mxPoint x="570" y="440" as="targetPoint" />
          </mxGeometry>
        </mxCell>
        <mxCell id="SlWbrO8GuP0TGCZLVEYo-53" value="" style="ellipse;whiteSpace=wrap;html=1;fillColor=#000000;" vertex="1" parent="1">
          <mxGeometry x="620" y="309" width="10" height="10" as="geometry" />
        </mxCell>
        <mxCell id="SlWbrO8GuP0TGCZLVEYo-54" value="" style="ellipse;whiteSpace=wrap;html=1;fillColor=#000000;" vertex="1" parent="1">
          <mxGeometry x="620" y="349" width="10" height="10" as="geometry" />
        </mxCell>
        <mxCell id="SlWbrO8GuP0TGCZLVEYo-55" value="" style="ellipse;whiteSpace=wrap;html=1;fillColor=#000000;" vertex="1" parent="1">
          <mxGeometry x="620" y="329" width="10" height="10" as="geometry" />
        </mxCell>
        <mxCell id="SlWbrO8GuP0TGCZLVEYo-56" value="Camada de Entrada" style="text;html=1;align=center;verticalAlign=middle;whiteSpace=wrap;rounded=0;strokeColor=none;fontSize=20;" vertex="1" parent="1">
          <mxGeometry x="235" y="100" width="130" height="30" as="geometry" />
        </mxCell>
      </root>
    </mxGraphModel>
  </diagram>
</mxfile>
